<svg xmlns="http://www.w3.org/2000/svg" xmlns:xlink="http://www.w3.org/1999/xlink" width="500" zoomAndPan="magnify" viewBox="0 0 375 374.999991" height="500" preserveAspectRatio="xMidYMid meet" version="1.0"><defs><g/><clipPath id="d44b613a95"><path d="M 51 51 L 323.855469 51 L 323.855469 324.128906 L 51 324.128906 Z M 51 51 " clip-rule="nonzero"/></clipPath><clipPath id="ecd28b7369"><path d="M 139.269531 59.878906 C 145.507812 52.09375 156.074219 49.261719 165.367188 52.886719 L 179.210938 58.285156 C 184.542969 60.363281 190.457031 60.363281 195.789062 58.285156 L 209.632812 52.886719 C 218.925781 49.261719 229.492188 52.09375 235.730469 59.878906 L 245.019531 71.476562 C 248.597656 75.941406 253.722656 78.898438 259.375 79.765625 L 274.066406 82.011719 C 283.925781 83.519531 291.660156 91.257812 293.167969 101.113281 L 295.417969 115.804688 C 296.28125 121.460938 299.238281 126.582031 303.703125 130.160156 L 315.300781 139.449219 C 323.085938 145.6875 325.917969 156.253906 322.296875 165.546875 L 316.894531 179.390625 C 314.816406 184.722656 314.816406 190.640625 316.894531 195.96875 L 322.296875 209.8125 C 325.917969 219.105469 323.085938 229.675781 315.300781 235.910156 L 303.703125 245.199219 C 299.238281 248.777344 296.28125 253.902344 295.417969 259.558594 L 293.167969 274.246094 C 291.660156 284.105469 283.925781 291.839844 274.066406 293.347656 L 259.375 295.597656 C 253.71875 296.460938 248.597656 299.421875 245.019531 303.886719 L 235.730469 315.484375 C 229.492188 323.265625 218.925781 326.097656 209.632812 322.476562 L 195.789062 317.078125 C 190.457031 314.996094 184.542969 314.996094 179.210938 317.078125 L 165.367188 322.476562 C 156.074219 326.097656 145.507812 323.265625 139.269531 315.484375 L 129.980469 303.886719 C 126.402344 299.421875 121.28125 296.460938 115.625 295.597656 L 100.933594 293.347656 C 91.074219 291.839844 83.339844 284.105469 81.832031 274.246094 L 79.582031 259.558594 C 78.71875 253.902344 75.761719 248.777344 71.296875 245.199219 L 59.695312 235.910156 C 51.914062 229.675781 49.082031 219.105469 52.703125 209.8125 L 58.101562 195.96875 C 60.183594 190.640625 60.183594 184.722656 58.101562 179.390625 L 52.703125 165.546875 C 49.082031 156.253906 51.914062 145.6875 59.695312 139.449219 L 71.292969 130.160156 C 75.761719 126.582031 78.71875 121.460938 79.582031 115.804688 L 81.832031 101.113281 C 83.339844 91.257812 91.074219 83.519531 100.933594 82.011719 L 115.625 79.765625 C 121.277344 78.898438 126.402344 75.941406 129.980469 71.476562 Z M 139.269531 59.878906 " clip-rule="nonzero"/></clipPath><clipPath id="5299f879ec"><path d="M 84.535156 84.535156 L 290.457031 84.535156 L 290.457031 290.457031 L 84.535156 290.457031 Z M 84.535156 84.535156 " clip-rule="nonzero"/></clipPath><clipPath id="b27a47c6ad"><path d="M 187.496094 84.535156 C 130.632812 84.535156 84.535156 130.632812 84.535156 187.496094 C 84.535156 244.359375 130.632812 290.457031 187.496094 290.457031 C 244.359375 290.457031 290.457031 244.359375 290.457031 187.496094 C 290.457031 130.632812 244.359375 84.535156 187.496094 84.535156 Z M 187.496094 84.535156 " clip-rule="nonzero"/></clipPath><clipPath id="55637bbca2"><path d="M 129 128.339844 L 201 128.339844 L 201 227 L 129 227 Z M 129 128.339844 " clip-rule="nonzero"/></clipPath><clipPath id="551141f941"><path d="M 122 77 L 265 77 L 265 136 L 122 136 Z M 122 77 " clip-rule="nonzero"/></clipPath><clipPath id="6bb467fc71"><path d="M 127.027344 77.519531 L 264.121094 91.789062 L 259.585938 135.359375 L 122.492188 121.085938 Z M 127.027344 77.519531 " clip-rule="nonzero"/></clipPath></defs><g clip-path="url(#d44b613a95)"><g clip-path="url(#ecd28b7369)"><path fill="#084838" d="M 51.144531 50.871094 L 323.855469 50.871094 L 323.855469 324.128906 L 51.144531 324.128906 Z M 51.144531 50.871094 " fill-opacity="1" fill-rule="nonzero"/></g></g><g clip-path="url(#5299f879ec)"><g clip-path="url(#b27a47c6ad)"><path stroke-linecap="butt" transform="matrix(0.75, 0, 0, 0.75, 84.535209, 84.535204)" fill="none" stroke-linejoin="miter" d="M 137.281189 -0.0000637318 C 61.463476 -0.0000637318 -0.0000697318 61.463482 -0.0000697318 137.281195 C -0.0000697318 213.098909 61.463476 274.562454 137.281189 274.562454 C 213.098903 274.562454 274.562448 213.098909 274.562448 137.281195 C 274.562448 61.463482 213.098903 -0.0000637318 137.281189 -0.0000637318 Z M 137.281189 -0.0000637318 " stroke="#ffffff" stroke-width="4" stroke-opacity="1" stroke-miterlimit="4"/></g></g><path fill="#ffffff" d="M 237.175781 241.90625 C 223.078125 264.886719 205.804688 267.945312 189.417969 261.046875 C 189.511719 257.730469 189.769531 254.15625 190.257812 250.390625 C 193.457031 225.703125 224.925781 184.734375 225.300781 184.246094 C 224.921875 184.5625 193.054688 211.105469 182.285156 244.273438 C 180.917969 248.480469 180.003906 252.242188 179.453125 255.613281 C 162.386719 244.152344 154.3125 226.25 169.996094 200.6875 C 186.34375 174.042969 240.859375 160.550781 240.859375 160.550781 C 240.859375 160.550781 253.523438 215.265625 237.175781 241.90625 Z M 237.175781 241.90625 " fill-opacity="1" fill-rule="nonzero"/><g clip-path="url(#55637bbca2)"><path fill="#ffffff" d="M 200.890625 169.671875 C 188.878906 175.359375 176.570312 182.917969 168.867188 192.332031 C 157.371094 174.347656 147.601562 155.082031 147.371094 154.519531 C 147.46875 155.113281 152.480469 176.542969 164.644531 198.5 C 158.355469 209.296875 156.359375 218.699219 157.496094 226.796875 C 149.445312 224.007812 141.886719 217.335938 135.476562 205.410156 C 121.484375 179.367188 136.402344 128.394531 136.402344 128.394531 C 136.402344 128.394531 186.558594 143.902344 200.890625 169.671875 Z M 200.890625 169.671875 " fill-opacity="1" fill-rule="nonzero"/></g><g clip-path="url(#551141f941)"><g clip-path="url(#6bb467fc71)"><path fill="#084838" d="M 127.027344 77.519531 L 264.207031 91.796875 L 259.671875 135.367188 L 122.492188 121.085938 Z M 127.027344 77.519531 " fill-opacity="1" fill-rule="nonzero"/></g></g><g fill="#ffffff" fill-opacity="1"><g transform="translate(132.033601, 105.927541)"><g><path d="M 8.734375 -5.484375 L 9.203125 -4.53125 L 0.671875 -0.328125 L 0.296875 -1.078125 L 2.90625 -13.203125 L -3.890625 -9.84375 L -4.359375 -10.796875 L 3.90625 -14.875 L 4.28125 -14.109375 L 1.671875 -2.015625 Z M 8.734375 -5.484375 "/></g></g></g><g fill="#ffffff" fill-opacity="1"><g transform="translate(153.258445, 96.847148)"><g><path d="M 9.5 -3.578125 L 9.765625 -2.546875 L 1.828125 -0.46875 L -1.09375 -11.703125 L 6.609375 -13.71875 L 6.875 -12.6875 L 0.359375 -10.984375 L 1.390625 -7 L 7.203125 -8.515625 L 7.46875 -7.5 L 1.65625 -5.984375 L 2.75 -1.8125 Z M 9.5 -3.578125 "/></g></g></g><g fill="#ffffff" fill-opacity="1"><g transform="translate(176.115425, 92.121171)"><g><path d="M 11.109375 -12.0625 L 11.578125 -0.46875 L 10.5625 -0.421875 L 2.734375 -9.546875 L 3.109375 -0.125 L 1.890625 -0.078125 L 1.421875 -11.671875 L 2.4375 -11.71875 L 10.265625 -2.609375 L 9.890625 -12.015625 Z M 11.109375 -12.0625 "/></g></g></g><g fill="#ffffff" fill-opacity="1"><g transform="translate(201.847277, 92.561246)"><g><path d="M 5.828125 -9.71875 L 1.8125 -10.390625 L 2 -11.4375 L 11.265625 -9.875 L 11.078125 -8.828125 L 7.046875 -9.515625 L 5.296875 0.890625 L 4.078125 0.6875 Z M 5.828125 -9.71875 "/></g></g></g><g fill="#ffffff" fill-opacity="1"><g transform="translate(223.16122, 97.316459)"><g><path d="M 9.796875 2.609375 L 9.421875 3.609375 L 1.765625 0.671875 L 5.90625 -10.171875 L 13.34375 -7.328125 L 12.96875 -6.34375 L 6.671875 -8.75 L 5.203125 -4.890625 L 10.828125 -2.75 L 10.453125 -1.765625 L 4.828125 -3.90625 L 3.28125 0.109375 Z M 9.796875 2.609375 "/></g></g></g><g fill="#ffffff" fill-opacity="1"><g transform="translate(244.516608, 106.79605)"><g><path d="M 9.375 2.375 L 3.9375 -1.125 L 1.109375 0.71875 L 0.03125 0.015625 L 10.78125 -6.859375 L 11.796875 -6.203125 L 9.96875 6.421875 L 8.875 5.71875 Z M 9.546875 1.28125 L 10.578125 -5.46875 L 4.875 -1.734375 Z M 9.546875 1.28125 "/></g></g></g></svg>